<svg xmlns="http://www.w3.org/2000/svg" xmlns:xlink="http://www.w3.org/1999/xlink" contentStyleType="text/css" data-diagram-type="CLASS" height="965px" preserveAspectRatio="none" style="width:782px;height:965px;background:#FFFFFF;" version="1.1" viewBox="0 0 782 965" width="782px" zoomAndPan="magnify"><defs/><g><!--cluster telemetry--><g class="cluster" data-entity="telemetry" data-source-line="6" data-uid="ent0002" id="cluster_telemetry"><rect fill="none" height="935.7" rx="2.5" ry="2.5" style="stroke:#000000;stroke-width:1.5;" width="376" x="7" y="23.48"/><text fill="#000000" font-family="sans-serif" font-size="14" font-weight="bold" lengthAdjust="spacing" textLength="68.6123" x="160.6938" y="39.0152">telemetry</text></g><!--cluster scenario--><g class="cluster" data-entity="scenario" data-source-line="64" data-uid="ent0019" id="cluster_scenario"><rect fill="none" height="952.18" rx="2.5" ry="2.5" style="stroke:#000000;stroke-width:1.5;" width="369" x="407" y="7"/><text fill="#000000" font-family="sans-serif" font-size="14" font-weight="bold" lengthAdjust="spacing" textLength="60.8535" x="561.0732" y="22.5352">scenario</text></g><!--class Controller--><g class="entity" data-entity="Controller" data-source-line="8" data-uid="ent0003" id="entity_Controller"><rect fill="#F1F1F1" height="108.4414" rx="2.5" ry="2.5" style="stroke:#181818;stroke-width:0.5;" width="83.1963" x="51.4" y="481.37"/><text fill="#000000" font-family="sans-serif" font-size="14" lengthAdjust="spacing" textLength="68.1611" x="58.9176" y="499.9052">Controller</text><line style="stroke:#181818;stroke-width:0.5;" x1="52.4" x2="133.5963" y1="507.8583" y2="507.8583"/><line style="stroke:#181818;stroke-width:0.5;" x1="52.4" x2="133.5963" y1="515.8583" y2="515.8583"/><ellipse cx="62.4" cy="529.6024" fill="#84BE84" rx="3" ry="3" style="stroke:#038048;stroke-width:1;"/><text fill="#000000" font-family="sans-serif" font-size="14" lengthAdjust="spacing" textLength="53.0879" x="71.4" y="533.3934">Create()</text><ellipse cx="62.4" cy="546.0907" fill="#84BE84" rx="3" ry="3" style="stroke:#038048;stroke-width:1;"/><text fill="#000000" font-family="sans-serif" font-size="14" lengthAdjust="spacing" textLength="42.3008" x="71.4" y="549.8817">Read()</text><ellipse cx="62.4" cy="562.579" fill="#84BE84" rx="3" ry="3" style="stroke:#038048;stroke-width:1;"/><text fill="#000000" font-family="sans-serif" font-size="14" lengthAdjust="spacing" textLength="57.1963" x="71.4" y="566.37">Update()</text><ellipse cx="62.4" cy="579.0673" fill="#84BE84" rx="3" ry="3" style="stroke:#038048;stroke-width:1;"/><text fill="#000000" font-family="sans-serif" font-size="14" lengthAdjust="spacing" textLength="52.2744" x="71.4" y="582.8583">Delete()</text></g><!--class ControllerService--><g class="entity" data-entity="ControllerService" data-source-line="15" data-uid="ent0004" id="entity_ControllerService"><rect fill="#F1F1F1" height="108.4414" rx="2.5" ry="2.5" style="stroke:#181818;stroke-width:0.5;" width="140.502" x="22.75" y="649.81"/><text fill="#000000" font-family="sans-serif" font-size="14" lengthAdjust="spacing" textLength="115.4932" x="35.2544" y="668.3452">ControllerService</text><line style="stroke:#181818;stroke-width:0.5;" x1="23.75" x2="162.252" y1="676.2983" y2="676.2983"/><line style="stroke:#181818;stroke-width:0.5;" x1="23.75" x2="162.252" y1="684.2983" y2="684.2983"/><ellipse cx="33.75" cy="698.0424" fill="#84BE84" rx="3" ry="3" style="stroke:#038048;stroke-width:1;"/><text fill="#000000" font-family="sans-serif" font-size="14" lengthAdjust="spacing" textLength="110.3936" x="42.75" y="701.8334">CreateScenario()</text><ellipse cx="33.75" cy="714.5307" fill="#84BE84" rx="3" ry="3" style="stroke:#038048;stroke-width:1;"/><text fill="#000000" font-family="sans-serif" font-size="14" lengthAdjust="spacing" textLength="99.6064" x="42.75" y="718.3217">ReadScenario()</text><ellipse cx="33.75" cy="731.019" fill="#84BE84" rx="3" ry="3" style="stroke:#038048;stroke-width:1;"/><text fill="#000000" font-family="sans-serif" font-size="14" lengthAdjust="spacing" textLength="114.502" x="42.75" y="734.81">UpdateScenario()</text><ellipse cx="33.75" cy="747.5073" fill="#84BE84" rx="3" ry="3" style="stroke:#038048;stroke-width:1;"/><text fill="#000000" font-family="sans-serif" font-size="14" lengthAdjust="spacing" textLength="109.5801" x="42.75" y="751.2983">DeleteScenario()</text></g><!--class Consumer--><g class="entity" data-entity="Consumer" data-source-line="22" data-uid="ent0005" id="entity_Consumer"><rect fill="#F1F1F1" height="91.9531" rx="2.5" ry="2.5" style="stroke:#181818;stroke-width:0.5;" width="140.9395" x="226.53" y="489.61"/><text fill="#000000" font-family="sans-serif" font-size="14" lengthAdjust="spacing" textLength="69.3984" x="262.3005" y="508.1452">Consumer</text><line style="stroke:#181818;stroke-width:0.5;" x1="227.53" x2="366.4695" y1="516.0983" y2="516.0983"/><line style="stroke:#181818;stroke-width:0.5;" x1="227.53" x2="366.4695" y1="524.0983" y2="524.0983"/><ellipse cx="237.53" cy="537.8424" fill="#84BE84" rx="3" ry="3" style="stroke:#038048;stroke-width:1;"/><text fill="#000000" font-family="sans-serif" font-size="14" lengthAdjust="spacing" textLength="35.335" x="246.53" y="541.6334">Run()</text><ellipse cx="237.53" cy="554.3307" fill="#84BE84" rx="3" ry="3" style="stroke:#038048;stroke-width:1;"/><text fill="#000000" font-family="sans-serif" font-size="14" lengthAdjust="spacing" textLength="74.8398" x="246.53" y="558.1217">Subscribe()</text><ellipse cx="237.53" cy="570.819" fill="#84BE84" rx="3" ry="3" style="stroke:#038048;stroke-width:1;"/><text fill="#000000" font-family="sans-serif" font-size="14" lengthAdjust="spacing" textLength="114.9395" x="246.53" y="574.61">ManageHandler()</text></g><!--class ConsumerService--><g class="entity" data-entity="ConsumerService" data-source-line="28" data-uid="ent0006" id="entity_ConsumerService"><rect fill="#F1F1F1" height="58.9766" rx="2.5" ry="2.5" style="stroke:#181818;stroke-width:0.5;" width="132.0869" x="234.96" y="674.54"/><text fill="#000000" font-family="sans-serif" font-size="14" lengthAdjust="spacing" textLength="116.7305" x="242.6382" y="693.0752">ConsumerService</text><line style="stroke:#181818;stroke-width:0.5;" x1="235.96" x2="366.0469" y1="701.0283" y2="701.0283"/><line style="stroke:#181818;stroke-width:0.5;" x1="235.96" x2="366.0469" y1="709.0283" y2="709.0283"/><ellipse cx="245.96" cy="722.7724" fill="#84BE84" rx="3" ry="3" style="stroke:#038048;stroke-width:1;"/><text fill="#000000" font-family="sans-serif" font-size="14" lengthAdjust="spacing" textLength="106.0869" x="254.96" y="726.5634">HandleTrigger()</text></g><!--class Streamer--><g class="entity" data-entity="Streamer" data-source-line="32" data-uid="ent0007" id="entity_Streamer"><rect fill="#F1F1F1" height="75.4648" rx="2.5" ry="2.5" style="stroke:#181818;stroke-width:0.5;" width="121.8809" x="175.06" y="58.48"/><text fill="#000000" font-family="sans-serif" font-size="14" lengthAdjust="spacing" textLength="60.6348" x="205.683" y="77.0152">Streamer</text><line style="stroke:#181818;stroke-width:0.5;" x1="176.06" x2="295.9409" y1="84.9683" y2="84.9683"/><ellipse cx="186.06" cy="98.7124" fill="none" rx="3" ry="3" style="stroke:#038048;stroke-width:1;"/><text fill="#000000" font-family="sans-serif" font-size="14" lengthAdjust="spacing" textLength="60.1426" x="195.06" y="102.5034">schedule</text><line style="stroke:#181818;stroke-width:0.5;" x1="176.06" x2="295.9409" y1="109.4566" y2="109.4566"/><ellipse cx="186.06" cy="123.2007" fill="#84BE84" rx="3" ry="3" style="stroke:#038048;stroke-width:1;"/><text fill="#000000" font-family="sans-serif" font-size="14" lengthAdjust="spacing" textLength="95.8809" x="195.06" y="126.9917">RunSchedule()</text></g><!--class StreamerService--><g class="entity" data-entity="StreamerService" data-source-line="37" data-uid="ent0008" id="entity_StreamerService"><rect fill="#F1F1F1" height="75.4648" rx="2.5" ry="2.5" style="stroke:#181818;stroke-width:0.5;" width="125.9072" x="173.05" y="226.93"/><text fill="#000000" font-family="sans-serif" font-size="14" lengthAdjust="spacing" textLength="107.9668" x="182.0202" y="245.4652">StreamerService</text><line style="stroke:#181818;stroke-width:0.5;" x1="174.05" x2="297.9572" y1="253.4183" y2="253.4183"/><ellipse cx="184.05" cy="267.1624" fill="none" rx="3" ry="3" style="stroke:#038048;stroke-width:1;"/><text fill="#000000" font-family="sans-serif" font-size="14" lengthAdjust="spacing" textLength="42.875" x="193.05" y="270.9534">device</text><line style="stroke:#181818;stroke-width:0.5;" x1="174.05" x2="297.9572" y1="277.9066" y2="277.9066"/><ellipse cx="184.05" cy="291.6507" fill="#84BE84" rx="3" ry="3" style="stroke:#038048;stroke-width:1;"/><text fill="#000000" font-family="sans-serif" font-size="14" lengthAdjust="spacing" textLength="99.9072" x="193.05" y="295.4417">GetTelemetry()</text></g><!--class Repository--><g class="entity" data-entity="Repository" data-source-line="42" data-uid="ent0009" id="entity_Repository"><rect fill="#F1F1F1" height="124.9297" rx="2.5" ry="2.5" style="stroke:#181818;stroke-width:0.5;" width="86.4707" x="155.76" y="818.25"/><text fill="#000000" font-family="sans-serif" font-size="14" lengthAdjust="spacing" textLength="72.126" x="162.9324" y="836.7852">Repository</text><line style="stroke:#181818;stroke-width:0.5;" x1="156.76" x2="241.2307" y1="844.7383" y2="844.7383"/><line style="stroke:#181818;stroke-width:0.5;" x1="156.76" x2="241.2307" y1="852.7383" y2="852.7383"/><ellipse cx="166.76" cy="866.4824" fill="#84BE84" rx="3" ry="3" style="stroke:#038048;stroke-width:1;"/><text fill="#000000" font-family="sans-serif" font-size="14" lengthAdjust="spacing" textLength="60.4707" x="175.76" y="870.2734">GetById()</text><ellipse cx="166.76" cy="882.9707" fill="#84BE84" rx="3" ry="3" style="stroke:#038048;stroke-width:1;"/><text fill="#000000" font-family="sans-serif" font-size="14" lengthAdjust="spacing" textLength="50.0117" x="175.76" y="886.7617">GetAll()</text><ellipse cx="166.76" cy="899.459" fill="#84BE84" rx="3" ry="3" style="stroke:#038048;stroke-width:1;"/><text fill="#000000" font-family="sans-serif" font-size="14" lengthAdjust="spacing" textLength="53.0879" x="175.76" y="903.25">Create()</text><ellipse cx="166.76" cy="915.9473" fill="#84BE84" rx="3" ry="3" style="stroke:#038048;stroke-width:1;"/><text fill="#000000" font-family="sans-serif" font-size="14" lengthAdjust="spacing" textLength="57.1963" x="175.76" y="919.7383">Update()</text><ellipse cx="166.76" cy="932.4355" fill="#84BE84" rx="3" ry="3" style="stroke:#038048;stroke-width:1;"/><text fill="#000000" font-family="sans-serif" font-size="14" lengthAdjust="spacing" textLength="52.2744" x="175.76" y="936.2266">Delete()</text></g><!--class MessageBroker--><g class="entity" data-entity="MessageBroker" data-source-line="50" data-uid="ent0010" id="entity_MessageBroker"><rect fill="#F1F1F1" height="42.4883" rx="2.5" ry="2.5" style="stroke:#181818;stroke-width:0.5;" width="108.4844" x="234.76" y="378.88"/><text fill="#000000" font-family="sans-serif" font-size="14" lengthAdjust="spacing" textLength="102.4844" x="237.76" y="397.4152">MessageBroker</text><line style="stroke:#181818;stroke-width:0.5;" x1="235.76" x2="342.2444" y1="405.3683" y2="405.3683"/><line style="stroke:#181818;stroke-width:0.5;" x1="235.76" x2="342.2444" y1="413.3683" y2="413.3683"/></g><!--class Controller--><g class="entity" data-entity="Controller" data-source-line="66" data-uid="ent0020" id="entity_Controller"><rect fill="#F1F1F1" height="108.4414" rx="2.5" ry="2.5" style="stroke:#181818;stroke-width:0.5;" width="83.1963" x="451.4" y="42"/><text fill="#000000" font-family="sans-serif" font-size="14" lengthAdjust="spacing" textLength="68.1611" x="458.9176" y="60.5352">Controller</text><line style="stroke:#181818;stroke-width:0.5;" x1="452.4" x2="533.5963" y1="68.4883" y2="68.4883"/><line style="stroke:#181818;stroke-width:0.5;" x1="452.4" x2="533.5963" y1="76.4883" y2="76.4883"/><ellipse cx="462.4" cy="90.2324" fill="#84BE84" rx="3" ry="3" style="stroke:#038048;stroke-width:1;"/><text fill="#000000" font-family="sans-serif" font-size="14" lengthAdjust="spacing" textLength="53.0879" x="471.4" y="94.0234">Create()</text><ellipse cx="462.4" cy="106.7207" fill="#84BE84" rx="3" ry="3" style="stroke:#038048;stroke-width:1;"/><text fill="#000000" font-family="sans-serif" font-size="14" lengthAdjust="spacing" textLength="42.3008" x="471.4" y="110.5117">Read()</text><ellipse cx="462.4" cy="123.209" fill="#84BE84" rx="3" ry="3" style="stroke:#038048;stroke-width:1;"/><text fill="#000000" font-family="sans-serif" font-size="14" lengthAdjust="spacing" textLength="57.1963" x="471.4" y="127">Update()</text><ellipse cx="462.4" cy="139.6973" fill="#84BE84" rx="3" ry="3" style="stroke:#038048;stroke-width:1;"/><text fill="#000000" font-family="sans-serif" font-size="14" lengthAdjust="spacing" textLength="52.2744" x="471.4" y="143.4883">Delete()</text></g><!--class ControllerService--><g class="entity" data-entity="ControllerService" data-source-line="73" data-uid="ent0021" id="entity_ControllerService"><rect fill="#F1F1F1" height="108.4414" rx="2.5" ry="2.5" style="stroke:#181818;stroke-width:0.5;" width="140.502" x="422.75" y="210.44"/><text fill="#000000" font-family="sans-serif" font-size="14" lengthAdjust="spacing" textLength="115.4932" x="435.2544" y="228.9752">ControllerService</text><line style="stroke:#181818;stroke-width:0.5;" x1="423.75" x2="562.252" y1="236.9283" y2="236.9283"/><line style="stroke:#181818;stroke-width:0.5;" x1="423.75" x2="562.252" y1="244.9283" y2="244.9283"/><ellipse cx="433.75" cy="258.6724" fill="#84BE84" rx="3" ry="3" style="stroke:#038048;stroke-width:1;"/><text fill="#000000" font-family="sans-serif" font-size="14" lengthAdjust="spacing" textLength="110.3936" x="442.75" y="262.4634">CreateScenario()</text><ellipse cx="433.75" cy="275.1607" fill="#84BE84" rx="3" ry="3" style="stroke:#038048;stroke-width:1;"/><text fill="#000000" font-family="sans-serif" font-size="14" lengthAdjust="spacing" textLength="99.6064" x="442.75" y="278.9517">ReadScenario()</text><ellipse cx="433.75" cy="291.649" fill="#84BE84" rx="3" ry="3" style="stroke:#038048;stroke-width:1;"/><text fill="#000000" font-family="sans-serif" font-size="14" lengthAdjust="spacing" textLength="114.502" x="442.75" y="295.44">UpdateScenario()</text><ellipse cx="433.75" cy="308.1373" fill="#84BE84" rx="3" ry="3" style="stroke:#038048;stroke-width:1;"/><text fill="#000000" font-family="sans-serif" font-size="14" lengthAdjust="spacing" textLength="109.5801" x="442.75" y="311.9283">DeleteScenario()</text></g><!--class Scheduler--><g class="entity" data-entity="Scheduler" data-source-line="80" data-uid="ent0022" id="entity_Scheduler"><rect fill="#F1F1F1" height="58.9766" rx="2.5" ry="2.5" style="stroke:#181818;stroke-width:0.5;" width="123.8838" x="617.06" y="66.73"/><text fill="#000000" font-family="sans-serif" font-size="14" lengthAdjust="spacing" textLength="66.2744" x="645.8647" y="85.2652">Scheduler</text><line style="stroke:#181818;stroke-width:0.5;" x1="618.06" x2="739.9438" y1="93.2183" y2="93.2183"/><line style="stroke:#181818;stroke-width:0.5;" x1="618.06" x2="739.9438" y1="101.2183" y2="101.2183"/><ellipse cx="628.06" cy="114.9624" fill="#84BE84" rx="3" ry="3" style="stroke:#038048;stroke-width:1;"/><text fill="#000000" font-family="sans-serif" font-size="14" lengthAdjust="spacing" textLength="97.8838" x="637.06" y="118.7534">StartScenario()</text></g><!--class ScheduleService--><g class="entity" data-entity="ScheduleService" data-source-line="84" data-uid="ent0023" id="entity_ScheduleService"><rect fill="#F1F1F1" height="75.4648" rx="2.5" ry="2.5" style="stroke:#181818;stroke-width:0.5;" width="162.4658" x="597.77" y="226.93"/><text fill="#000000" font-family="sans-serif" font-size="14" lengthAdjust="spacing" textLength="107.8779" x="625.0639" y="245.4652">ScheduleService</text><line style="stroke:#181818;stroke-width:0.5;" x1="598.77" x2="759.2358" y1="253.4183" y2="253.4183"/><ellipse cx="608.77" cy="267.1624" fill="none" rx="3" ry="3" style="stroke:#038048;stroke-width:1;"/><text fill="#000000" font-family="sans-serif" font-size="14" lengthAdjust="spacing" textLength="136.4658" x="617.77" y="270.9534">scenario&lt;Scenario&gt;</text><line style="stroke:#181818;stroke-width:0.5;" x1="598.77" x2="759.2358" y1="277.9066" y2="277.9066"/><ellipse cx="608.77" cy="291.6507" fill="#84BE84" rx="3" ry="3" style="stroke:#038048;stroke-width:1;"/><text fill="#000000" font-family="sans-serif" font-size="14" lengthAdjust="spacing" textLength="92.6406" x="617.77" y="295.4417">RunScenario()</text></g><!--class Consumer--><g class="entity" data-entity="Consumer" data-source-line="89" data-uid="ent0024" id="entity_Consumer"><rect fill="#F1F1F1" height="91.9531" rx="2.5" ry="2.5" style="stroke:#181818;stroke-width:0.5;" width="140.9395" x="515.53" y="489.61"/><text fill="#000000" font-family="sans-serif" font-size="14" lengthAdjust="spacing" textLength="69.3984" x="551.3005" y="508.1452">Consumer</text><line style="stroke:#181818;stroke-width:0.5;" x1="516.53" x2="655.4695" y1="516.0983" y2="516.0983"/><line style="stroke:#181818;stroke-width:0.5;" x1="516.53" x2="655.4695" y1="524.0983" y2="524.0983"/><ellipse cx="526.53" cy="537.8424" fill="#84BE84" rx="3" ry="3" style="stroke:#038048;stroke-width:1;"/><text fill="#000000" font-family="sans-serif" font-size="14" lengthAdjust="spacing" textLength="35.335" x="535.53" y="541.6334">Run()</text><ellipse cx="526.53" cy="554.3307" fill="#84BE84" rx="3" ry="3" style="stroke:#038048;stroke-width:1;"/><text fill="#000000" font-family="sans-serif" font-size="14" lengthAdjust="spacing" textLength="74.8398" x="535.53" y="558.1217">Subscribe()</text><ellipse cx="526.53" cy="570.819" fill="#84BE84" rx="3" ry="3" style="stroke:#038048;stroke-width:1;"/><text fill="#000000" font-family="sans-serif" font-size="14" lengthAdjust="spacing" textLength="114.9395" x="535.53" y="574.61">ManageHandler()</text></g><!--class ConsumerService--><g class="entity" data-entity="ConsumerService" data-source-line="95" data-uid="ent0025" id="entity_ConsumerService"><rect fill="#F1F1F1" height="58.9766" rx="2.5" ry="2.5" style="stroke:#181818;stroke-width:0.5;" width="132.0869" x="519.96" y="674.54"/><text fill="#000000" font-family="sans-serif" font-size="14" lengthAdjust="spacing" textLength="116.7305" x="527.6382" y="693.0752">ConsumerService</text><line style="stroke:#181818;stroke-width:0.5;" x1="520.96" x2="651.0469" y1="701.0283" y2="701.0283"/><line style="stroke:#181818;stroke-width:0.5;" x1="520.96" x2="651.0469" y1="709.0283" y2="709.0283"/><ellipse cx="530.96" cy="722.7724" fill="#84BE84" rx="3" ry="3" style="stroke:#038048;stroke-width:1;"/><text fill="#000000" font-family="sans-serif" font-size="14" lengthAdjust="spacing" textLength="106.0869" x="539.96" y="726.5634">HandleTrigger()</text></g><!--class MessageBroker--><g class="entity" data-entity="MessageBroker" data-source-line="99" data-uid="ent0026" id="entity_MessageBroker"><rect fill="#F1F1F1" height="42.4883" rx="2.5" ry="2.5" style="stroke:#181818;stroke-width:0.5;" width="108.4844" x="531.76" y="378.88"/><text fill="#000000" font-family="sans-serif" font-size="14" lengthAdjust="spacing" textLength="102.4844" x="534.76" y="397.4152">MessageBroker</text><line style="stroke:#181818;stroke-width:0.5;" x1="532.76" x2="639.2444" y1="405.3683" y2="405.3683"/><line style="stroke:#181818;stroke-width:0.5;" x1="532.76" x2="639.2444" y1="413.3683" y2="413.3683"/></g><!--class Repository--><g class="entity" data-entity="Repository" data-source-line="102" data-uid="ent0027" id="entity_Repository"><rect fill="#F1F1F1" height="124.9297" rx="2.5" ry="2.5" style="stroke:#181818;stroke-width:0.5;" width="86.4707" x="542.76" y="818.25"/><text fill="#000000" font-family="sans-serif" font-size="14" lengthAdjust="spacing" textLength="72.126" x="549.9324" y="836.7852">Repository</text><line style="stroke:#181818;stroke-width:0.5;" x1="543.76" x2="628.2307" y1="844.7383" y2="844.7383"/><line style="stroke:#181818;stroke-width:0.5;" x1="543.76" x2="628.2307" y1="852.7383" y2="852.7383"/><ellipse cx="553.76" cy="866.4824" fill="#84BE84" rx="3" ry="3" style="stroke:#038048;stroke-width:1;"/><text fill="#000000" font-family="sans-serif" font-size="14" lengthAdjust="spacing" textLength="60.4707" x="562.76" y="870.2734">GetById()</text><ellipse cx="553.76" cy="882.9707" fill="#84BE84" rx="3" ry="3" style="stroke:#038048;stroke-width:1;"/><text fill="#000000" font-family="sans-serif" font-size="14" lengthAdjust="spacing" textLength="50.0117" x="562.76" y="886.7617">GetAll()</text><ellipse cx="553.76" cy="899.459" fill="#84BE84" rx="3" ry="3" style="stroke:#038048;stroke-width:1;"/><text fill="#000000" font-family="sans-serif" font-size="14" lengthAdjust="spacing" textLength="53.0879" x="562.76" y="903.25">Create()</text><ellipse cx="553.76" cy="915.9473" fill="#84BE84" rx="3" ry="3" style="stroke:#038048;stroke-width:1;"/><text fill="#000000" font-family="sans-serif" font-size="14" lengthAdjust="spacing" textLength="57.1963" x="562.76" y="919.7383">Update()</text><ellipse cx="553.76" cy="932.4355" fill="#84BE84" rx="3" ry="3" style="stroke:#038048;stroke-width:1;"/><text fill="#000000" font-family="sans-serif" font-size="14" lengthAdjust="spacing" textLength="52.2744" x="562.76" y="936.2266">Delete()</text></g><!--link Controller to ControllerService--><g class="link" data-entity-1="Controller" data-entity-2="ControllerService" data-source-line="54" data-uid="lnk11" id="link_Controller_ControllerService"><path codeLine="54" d="M93,590.28 C93,609.2 93,624.4 93,643.33" fill="none" id="Controller-to-ControllerService" style="stroke:#181818;stroke-width:1;"/><polygon fill="#181818" points="93,649.33,97,640.33,93,644.33,89,640.33,93,649.33" style="stroke:#181818;stroke-width:1;"/><text fill="#000000" font-family="sans-serif" font-size="13" lengthAdjust="spacing" textLength="28.5645" x="64" y="616.3684">uses</text></g><!--link ControllerService to Repository--><g class="link" data-entity-1="ControllerService" data-entity-2="Repository" data-source-line="55" data-uid="lnk12" id="link_ControllerService_Repository"><path codeLine="55" d="M159.51,758.48 C159.51,777.24 159.51,792.4 159.51,811.78" fill="none" id="ControllerService-to-Repository" style="stroke:#181818;stroke-width:1;"/><polygon fill="#181818" points="159.51,817.78,163.51,808.78,159.51,812.78,155.51,808.78,159.51,817.78" style="stroke:#181818;stroke-width:1;"/><text fill="#000000" font-family="sans-serif" font-size="13" lengthAdjust="spacing" textLength="28.5645" x="130.51" y="784.6984">uses</text></g><!--link StreamerService to Repository--><g class="link" data-entity-1="StreamerService" data-entity-2="Repository" data-source-line="56" data-uid="lnk13" id="link_StreamerService_Repository"><path codeLine="56" d="M199.79,302.73 C199.79,405.7 199.79,684.46 199.79,811.78" fill="none" id="StreamerService-to-Repository" style="stroke:#181818;stroke-width:1;"/><polygon fill="#181818" points="199.79,817.78,203.79,808.78,199.79,812.78,195.79,808.78,199.79,817.78" style="stroke:#181818;stroke-width:1;"/><text fill="#000000" font-family="sans-serif" font-size="13" lengthAdjust="spacing" textLength="28.5645" x="170.79" y="556.8284">uses</text></g><!--link Streamer to StreamerService--><g class="link" data-entity-1="Streamer" data-entity-2="StreamerService" data-source-line="57" data-uid="lnk14" id="link_Streamer_StreamerService"><path codeLine="57" d="M236,134.44 C236,162.01 236,193.06 236,220.59" fill="none" id="Streamer-to-StreamerService" style="stroke:#181818;stroke-width:1;"/><polygon fill="#181818" points="236,226.59,240,217.59,236,221.59,232,217.59,236,226.59" style="stroke:#181818;stroke-width:1;"/><text fill="#000000" font-family="sans-serif" font-size="13" lengthAdjust="spacing" textLength="28.5645" x="207" y="177.0784">uses</text></g><!--link StreamerService to MessageBroker--><g class="link" data-entity-1="StreamerService" data-entity-2="MessageBroker" data-source-line="58" data-uid="lnk15" id="link_StreamerService_MessageBroker"><path codeLine="58" d="M266.86,302.75 C266.86,327.33 266.86,352.38 266.86,372.73" fill="none" id="StreamerService-to-MessageBroker" style="stroke:#181818;stroke-width:1;stroke-dasharray:7,7;"/><polygon fill="#181818" points="266.86,378.73,270.86,369.73,266.86,373.73,262.86,369.73,266.86,378.73" style="stroke:#181818;stroke-width:1;"/><text fill="#000000" font-family="sans-serif" font-size="13" lengthAdjust="spacing" textLength="119.7866" x="146.86" y="337.3084">publishes message</text></g><!--link MessageBroker to Consumer--><g class="link" data-entity-1="MessageBroker" data-entity-2="Consumer" data-source-line="59" data-uid="lnk16" id="link_MessageBroker_Consumer"><path codeLine="59" d="M289,421.59 C289,439.72 289,460.32 289,483.26" fill="none" id="MessageBroker-to-Consumer" style="stroke:#181818;stroke-width:1;stroke-dasharray:7,7;"/><polygon fill="#181818" points="289,489.26,293,480.26,289,484.26,285,480.26,289,489.26" style="stroke:#181818;stroke-width:1;"/><text fill="#000000" font-family="sans-serif" font-size="13" lengthAdjust="spacing" textLength="93.8247" x="195" y="451.9984">reads message</text></g><!--link Consumer to ConsumerService--><g class="link" data-entity-1="Consumer" data-entity-2="ConsumerService" data-source-line="60" data-uid="lnk17" id="link_Consumer_ConsumerService"><path codeLine="60" d="M301,582.06 C301,611.47 301,642.62 301,668.15" fill="none" id="Consumer-to-ConsumerService" style="stroke:#181818;stroke-width:1;"/><polygon fill="#181818" points="301,674.15,305,665.15,301,669.15,297,665.15,301,674.15" style="stroke:#181818;stroke-width:1;"/><text fill="#000000" font-family="sans-serif" font-size="13" lengthAdjust="spacing" textLength="28.5645" x="272" y="624.6684">uses</text></g><!--link ConsumerService to Repository--><g class="link" data-entity-1="ConsumerService" data-entity-2="Repository" data-source-line="61" data-uid="lnk18" id="link_ConsumerService_Repository"><path codeLine="61" d="M238.6,734 C238.6,756.94 238.6,783.39 238.6,811.93" fill="none" id="ConsumerService-to-Repository" style="stroke:#181818;stroke-width:1;"/><polygon fill="#181818" points="238.6,817.93,242.6,808.93,238.6,812.93,234.6,808.93,238.6,817.93" style="stroke:#181818;stroke-width:1;"/><text fill="#000000" font-family="sans-serif" font-size="13" lengthAdjust="spacing" textLength="28.5645" x="209.6" y="772.5384">uses</text></g><!--link Controller to ControllerService--><g class="link" data-entity-1="Controller" data-entity-2="ControllerService" data-source-line="110" data-uid="lnk28" id="link_Controller_ControllerService"><path codeLine="110" d="M493,150.91 C493,169.83 493,185.03 493,203.96" fill="none" id="Controller-to-ControllerService-1" style="stroke:#181818;stroke-width:1;"/><polygon fill="#181818" points="493,209.96,497,200.96,493,204.96,489,200.96,493,209.96" style="stroke:#181818;stroke-width:1;"/><text fill="#000000" font-family="sans-serif" font-size="13" lengthAdjust="spacing" textLength="28.5645" x="464" y="176.9984">uses</text></g><!--link ControllerService to Repository--><g class="link" data-entity-1="ControllerService" data-entity-2="Repository" data-source-line="111" data-uid="lnk29" id="link_ControllerService_Repository"><path codeLine="111" d="M469.14,319.37 C469.14,470.26 469.14,881.18 469.14,881.18 C469.14,881.18 503.26,881.18 536.49,881.18" fill="none" id="ControllerService-to-Repository-1" style="stroke:#181818;stroke-width:1;"/><polygon fill="#181818" points="542.49,881.18,533.49,877.18,537.49,881.18,533.49,885.18,542.49,881.18" style="stroke:#181818;stroke-width:1;"/><text fill="#000000" font-family="sans-serif" font-size="13" lengthAdjust="spacing" textLength="28.5645" x="440.14" y="633.5184">uses</text></g><!--link ControllerService to MessageBroker--><g class="link" data-entity-1="ControllerService" data-entity-2="MessageBroker" data-source-line="112" data-uid="lnk30" id="link_ControllerService_MessageBroker"><path codeLine="112" d="M547.5,319.37 C547.5,340.07 547.5,356.47 547.5,372.41" fill="none" id="ControllerService-to-MessageBroker" style="stroke:#181818;stroke-width:1;stroke-dasharray:7,7;"/><polygon fill="#181818" points="547.5,378.41,551.5,369.41,547.5,373.41,543.5,369.41,547.5,378.41" style="stroke:#181818;stroke-width:1;"/><text fill="#000000" font-family="sans-serif" font-size="13" lengthAdjust="spacing" textLength="119.7866" x="427.5" y="345.4584">publishes message</text></g><!--link MessageBroker to Consumer--><g class="link" data-entity-1="MessageBroker" data-entity-2="Consumer" data-source-line="113" data-uid="lnk31" id="link_MessageBroker_Consumer"><path codeLine="113" d="M586,421.59 C586,439.72 586,460.32 586,483.26" fill="none" id="MessageBroker-to-Consumer-1" style="stroke:#181818;stroke-width:1;stroke-dasharray:7,7;"/><polygon fill="#181818" points="586,489.26,590,480.26,586,484.26,582,480.26,586,489.26" style="stroke:#181818;stroke-width:1;"/><text fill="#000000" font-family="sans-serif" font-size="13" lengthAdjust="spacing" textLength="93.8247" x="492" y="451.9984">reads message</text></g><!--link Consumer to ConsumerService--><g class="link" data-entity-1="Consumer" data-entity-2="ConsumerService" data-source-line="114" data-uid="lnk32" id="link_Consumer_ConsumerService"><path codeLine="114" d="M586,582.06 C586,611.47 586,642.62 586,668.15" fill="none" id="Consumer-to-ConsumerService-1" style="stroke:#181818;stroke-width:1;"/><polygon fill="#181818" points="586,674.15,590,665.15,586,669.15,582,665.15,586,674.15" style="stroke:#181818;stroke-width:1;"/><text fill="#000000" font-family="sans-serif" font-size="13" lengthAdjust="spacing" textLength="28.5645" x="557" y="624.6684">uses</text></g><!--link ConsumerService to Repository--><g class="link" data-entity-1="ConsumerService" data-entity-2="Repository" data-source-line="115" data-uid="lnk33" id="link_ConsumerService_Repository"><path codeLine="115" d="M586,734 C586,756.94 586,783.39 586,811.93" fill="none" id="ConsumerService-to-Repository-1" style="stroke:#181818;stroke-width:1;"/><polygon fill="#181818" points="586,817.93,590,808.93,586,812.93,582,808.93,586,817.93" style="stroke:#181818;stroke-width:1;"/><text fill="#000000" font-family="sans-serif" font-size="13" lengthAdjust="spacing" textLength="28.5645" x="557" y="772.5384">uses</text></g><!--link Scheduler to ScheduleService--><g class="link" data-entity-1="Scheduler" data-entity-2="ScheduleService" data-source-line="116" data-uid="lnk34" id="link_Scheduler_ScheduleService"><path codeLine="116" d="M679,125.94 C679,153.99 679,190.18 679,220.66" fill="none" id="Scheduler-to-ScheduleService" style="stroke:#181818;stroke-width:1;"/><polygon fill="#181818" points="679,226.66,683,217.66,679,221.66,675,217.66,679,226.66" style="stroke:#181818;stroke-width:1;"/><text fill="#000000" font-family="sans-serif" font-size="13" lengthAdjust="spacing" textLength="28.5645" x="650" y="172.8684">uses</text></g><!--link ScheduleService to Repository--><g class="link" data-entity-1="ScheduleService" data-entity-2="Repository" data-source-line="117" data-uid="lnk35" id="link_ScheduleService_Repository"><path codeLine="117" d="M708.35,302.76 C708.35,437.17 708.35,881.18 708.35,881.18 C708.35,881.18 670.65,881.18 635.48,881.18" fill="none" id="ScheduleService-to-Repository" style="stroke:#181818;stroke-width:1;"/><polygon fill="#181818" points="629.48,881.18,638.48,885.18,634.48,881.18,638.48,877.18,629.48,881.18" style="stroke:#181818;stroke-width:1;"/><text fill="#000000" font-family="sans-serif" font-size="13" lengthAdjust="spacing" textLength="28.5645" x="679.35" y="627.9684">uses</text></g><!--link ScheduleService to MessageBroker--><g class="link" data-entity-1="ScheduleService" data-entity-2="MessageBroker" data-source-line="118" data-uid="lnk36" id="link_ScheduleService_MessageBroker"><path codeLine="118" d="M619,302.75 C619,327.33 619,352.38 619,372.73" fill="none" id="ScheduleService-to-MessageBroker" style="stroke:#181818;stroke-width:1;stroke-dasharray:7,7;"/><polygon fill="#181818" points="619,378.73,623,369.73,619,373.73,615,369.73,619,378.73" style="stroke:#181818;stroke-width:1;"/><text fill="#000000" font-family="sans-serif" font-size="13" lengthAdjust="spacing" textLength="119.7866" x="620" y="337.3084">publishes message</text></g><!--SRC=[vLNTQi8m5BxlKvoxRWnzW364wM3RXJVMFK1C3sqmDYL91p9yzqNxcpGwjmeop4tfoVUTlvnyKMkMvKII3UI4hac2aTvo18bKaopX6AW6m5c6UfiZ2AbJ4QGiHg1CKWCAAZ9evBX1BRVm5GHW5kL4APY9J4l1EKfZXsezp2GIZNVthMM19Ex-V-InWtWn0HhBpXyZGld9AFP3HHGp8fbmG_hiPMZVJfc2i-EceegDNUoYoBfEecAbg6GhgxWvoKmJtqWMcofEEVPKMBAMaYM9dnjfqmCdAKLJZ0jpWDqqeyfuoeadWHZtblR_5VModWQVgmNcGZ4j3hFIPKstxzOG6DCpvrrBVt1-CoXpLCgqUIh5kkc60Ho-dK5jrcWqiRVguW4Uznk5GXKSGrJaJh7DiibkP-4lP81UsZw_FqSUZmzakrMTo7cnuaobg61JGe9ZyCfJSoN0gS74ZcqlFcXx1jRyW-yCUeYpshXhHKnLL_kcDQnM0QlQI1Efps5vqg-x-bJp9uxg_3CzFI8ZLnMuwycNZtnx8dAGq-RYzBNOkHt7oOCY3nFoSD234bxkHGalCmtXe748Xpugtm00]--></g></svg>